<svg viewBox="0 0 100 116" xmlns="http://www.w3.org/2000/svg">
  <defs>
    <clipPath id="s">
      <path d="M50 8 L88 21 V58 C88 84 70 100 50 110 C30 100 12 84 12 58 V21 Z"/>
    </clipPath>
  </defs>

  <path d="M50 2 L94 16 V58 C94 88 74 104 50 114 C26 104 6 88 6 58 V16 Z" fill="#CA943E"/>
  <path d="M50 5 L91 18 V58 C91 86 72 102 50 112 C28 102 9 86 9 58 V18 Z" fill="#fff"/>

  <g clip-path="url(#s)">
    <rect x="12" y="8"  width="38" height="55" fill="#861C2A"/>
    <rect x="50" y="8"  width="38" height="55" fill="#CA943E"/>
    <rect x="12" y="63" width="38" height="50" fill="#CA943E"/>
    <rect x="50" y="63" width="38" height="50" fill="#861C2A"/>
    <line x1="50" y1="8"  x2="50" y2="110" stroke="#fff" stroke-width="2"/>
    <line x1="12" y1="63" x2="88" y2="63"  stroke="#fff" stroke-width="2"/>
  </g>

  <g transform="translate(31,36)" fill="none" stroke="#fff" stroke-width="2.4" stroke-linecap="round" stroke-linejoin="round">
    <path d="M0,-10 C-2,-13 -10,-13 -13,-9 L-13,9 C-10,5 -2,6 0,9"/>
    <path d="M0,-10 C2,-13 10,-13 13,-9 L13,9 C10,5 2,6 0,9"/>
  </g>

  <g transform="translate(69,36)" fill="none" stroke="#fff" stroke-linecap="round">
    <circle cx="0" cy="0" r="12" stroke-width="2.4"/>
    <ellipse cx="0" cy="0" rx="5.5" ry="12" stroke-width="1.6"/>
    <line x1="-12" y1="0"  x2="12" y2="0"  stroke-width="1.4"/>
    <line x1="-11" y1="-5" x2="11" y2="-5" stroke-width="1.2"/>
    <line x1="-11" y1="5"  x2="11" y2="5"  stroke-width="1.2"/>
  </g>

  <g transform="translate(31,80)" fill="none" stroke="#fff" stroke-width="2.4" stroke-linecap="round" stroke-linejoin="round">
    <path d="M-9,-1 C-9,-13 9,-13 9,-1 C9,5 6,10 4,12 L-4,12 C-6,10 -9,5 -9,-1 Z"/>
    <line x1="-4" y1="14" x2="4" y2="14"/>
    <line x1="-2" y1="17" x2="2" y2="17"/>
  </g>

  <g transform="translate(69,80) rotate(-40)" fill="none" stroke="#fff" stroke-width="2.4" stroke-linecap="round" stroke-linejoin="round">
    <path d="M-4,-13 L4,-13 L4,8 L0,15 L-4,8 Z"/>
    <line x1="-4" y1="-9" x2="4" y2="-9" stroke-width="1.4"/>
  </g>
</svg>
